<?xml version="1.0" standalone="no"?><!DOCTYPE svg PUBLIC "-//W3C//DTD SVG 1.1//EN" "http://www.w3.org/Graphics/SVG/1.1/DTD/svg11.dtd"><svg t="1691820395981" class="icon" viewBox="0 0 1024 1024" version="1.1" xmlns="http://www.w3.org/2000/svg" p-id="1958" xmlns:xlink="http://www.w3.org/1999/xlink" width="200" height="200"><path d="M853.333333 106.666667a85.333333 85.333333 0 0 1 85.333334 85.333333v469.333333a85.333333 85.333333 0 0 1-85.333334 85.333334h-298.666666v85.333333h128a42.666667 42.666667 0 0 1 0 85.333333H341.333333a42.666667 42.666667 0 0 1 0-85.333333h128v-85.333333H170.666667a85.333333 85.333333 0 0 1-85.333334-85.333334v-469.333333a85.333333 85.333333 0 0 1 85.333334-85.333333h682.666666z m0 85.333333H170.666667v469.333333h682.666666v-469.333333z m-102.058666 152.362667a42.666667 42.666667 0 0 1 0.512 56.448l-3.754667 3.84-125.44 112.682666a51.2 51.2 0 0 1-63.317333 4.053334l-4.693334-3.626667-100.736-88.448-99.797333 85.418667a42.666667 42.666667 0 0 1-56.405333-0.853334l-3.754667-3.84a42.666667 42.666667 0 0 1 0.853333-56.448l3.84-3.712 122.24-104.618666a51.2 51.2 0 0 1 62.464-3.157334l4.565334 3.584 100.266666 87.936 102.912-92.458666a42.666667 42.666667 0 0 1 60.245334 3.2z" fill="#1890ff" p-id="1959"></path></svg>